<?xml version="1.0" encoding="utf-8"?>
<!-- Generator: Adobe Illustrator 24.0.1, SVG Export Plug-In . SVG Version: 6.00 Build 0)  -->
<svg version="1.1" xmlns="http://www.w3.org/2000/svg" xmlns:xlink="http://www.w3.org/1999/xlink" x="0px" y="0px"
	 viewBox="0 0 750 500" style="enable-background:new 0 0 750 500;" xml:space="preserve">
<style type="text/css">
	.st0{fill:#FBC988;}
	.st1{clip-path:url(#SVGID_2_);}
	.st2{fill:#FBD888;}
	.st3{fill:#FBBE5F;}
	.st4{fill:#FB753B;}
	.st5{fill:#FFFFFF;}
	.st6{fill:#2DA4BF;}
	.st7{opacity:0.3;fill:#2DA4BF;}
	.st8{font-family:'Raleway-Bold';}
	.st9{font-size:18px;}
	.st10{font-size:24.1316px;}
	.st11{fill:#A1BA14;}
	.st12{opacity:0.3;fill:#A1BA14;}
	.st13{opacity:0.3;fill:#FB753B;}
	.st14{font-size:22.7362px;}
	.st15{fill:#FF9191;}
	.st16{opacity:0.3;fill:#FF9191;}
	.st17{fill:#FF3636;}
	.st18{opacity:0.5;fill:#990000;}
	.st19{font-size:24.5102px;}
	.st20{fill:#20C78A;}
	.st21{opacity:0.3;fill:#20C78A;}
	.st22{fill:#9F56E8;}
	.st23{opacity:0.3;fill:#9F56E8;}
	.st24{font-size:22.2626px;}
	.st25{opacity:0.48;fill:#FF0000;}
</style>
<g id="BACKGROUND_2">
	<rect class="st0" width="750" height="500"/>
	<g>
		<defs>
			<rect id="SVGID_1_" width="750" height="500"/>
		</defs>
		<clipPath id="SVGID_2_">
			<use xlink:href="#SVGID_1_"  style="overflow:visible;"/>
		</clipPath>
		<g class="st1">
			<polygon class="st2" points="384.62,-371.5 427.93,-371.5 406.27,-66 384.62,239.5 362.97,-66 341.32,-371.5 			"/>
			<polygon class="st3" points="226.49,-350.68 268.31,-361.89 326.47,-61.19 384.62,239.5 284.64,-49.99 184.66,-339.47 			"/>
			<polygon class="st4" points="79.12,-289.64 116.62,-311.29 250.62,-35.9 384.62,239.5 213.12,-14.25 41.62,-267.99 			"/>
			<polygon class="st2" points="-47.42,-192.54 -16.8,-223.16 183.91,8.17 384.62,239.5 153.29,38.79 -78.04,-161.92 			"/>
			<polygon class="st3" points="-144.52,-66 -122.87,-103.5 130.88,68 384.62,239.5 109.23,105.5 -166.17,-28.5 			"/>
			<polygon class="st2" points="-205.56,81.36 -194.35,39.54 95.13,139.52 384.62,239.5 83.93,181.34 -216.77,123.19 			"/>
			<polygon class="st3" points="-226.38,239.5 -226.38,196.2 79.12,217.85 384.62,239.5 79.12,261.15 -226.38,282.8 			"/>
			<polygon class="st4" points="-205.56,397.64 -216.77,355.81 83.93,297.66 384.62,239.5 95.13,339.48 -194.35,439.47 			"/>
			<polygon class="st2" points="-144.52,545 -166.17,507.5 109.23,373.5 384.62,239.5 130.88,411 -122.87,582.5 			"/>
			<polygon class="st3" points="-47.42,671.54 -78.04,640.92 153.29,440.22 384.62,239.5 183.91,470.83 -16.8,702.16 			"/>
			<polygon class="st4" points="79.12,768.64 41.62,746.99 213.12,493.25 384.62,239.5 250.62,514.9 116.62,790.29 			"/>
			<polygon class="st2" points="226.48,829.68 184.66,818.48 284.64,528.99 384.62,239.5 326.46,540.2 268.31,840.89 			"/>
			<polygon class="st3" points="384.62,850.5 341.32,850.5 362.97,545 384.62,239.5 406.27,545 427.92,850.5 			"/>
			<polygon class="st2" points="542.76,829.68 500.93,840.89 442.78,540.2 384.62,239.5 484.6,528.99 584.59,818.48 			"/>
			<polygon class="st4" points="690.12,768.65 652.62,790.3 518.62,514.9 384.62,239.5 556.12,493.25 727.62,746.99 			"/>
			<polygon class="st3" points="816.67,671.55 786.05,702.16 585.34,470.83 384.62,239.5 615.96,440.22 847.28,640.93 			"/>
			<polygon class="st2" points="913.76,545 892.11,582.5 638.37,411 384.62,239.5 660.02,373.5 935.42,507.5 			"/>
			<polygon class="st2" points="974.81,397.64 963.6,439.47 674.11,339.48 384.62,239.5 685.32,297.66 986.01,355.82 			"/>
			<polygon class="st3" points="995.62,239.5 995.62,282.81 690.12,261.15 384.62,239.5 690.13,217.85 995.63,196.2 			"/>
			<polygon class="st4" points="974.81,81.37 986.01,123.19 685.32,181.34 384.62,239.5 674.11,139.52 963.6,39.54 			"/>
			<polygon class="st2" points="913.77,-66 935.42,-28.5 660.02,105.5 384.62,239.5 638.37,68 892.12,-103.5 			"/>
			<polygon class="st2" points="816.67,-192.54 847.29,-161.92 615.95,38.79 384.62,239.5 585.34,8.17 786.05,-223.16 			"/>
			<polygon class="st3" points="690.13,-289.64 727.63,-267.99 556.12,-14.25 384.62,239.5 518.62,-35.9 652.63,-311.29 			"/>
			<polygon class="st2" points="542.76,-350.68 584.59,-339.47 484.61,-49.99 384.62,239.5 442.78,-61.2 500.94,-361.89 			"/>
		</g>
	</g>
	<g>
		<g>
			<path class="st5" d="M453.46,57.38c-8.94,3.41-11.71,6.18-15.12,15.12c-3.41-8.94-6.18-11.71-15.12-15.12
				c8.94-3.41,11.71-6.18,15.12-15.12C441.76,51.21,444.52,53.97,453.46,57.38z"/>
			<path class="st5" d="M387.59,124.4c-5.42,2.07-7.1,3.74-9.16,9.16c-2.07-5.42-3.74-7.1-9.16-9.16c5.42-2.07,7.1-3.74,9.16-9.16
				C380.5,120.66,382.17,122.33,387.59,124.4z"/>
			
				<ellipse transform="matrix(0.9997 -0.0238 0.0238 0.9997 -4.1898 10.971)" class="st5" cx="458.8" cy="181.5" rx="9.16" ry="9.16"/>
			
				<ellipse transform="matrix(0.9999 -0.0122 0.0122 0.9999 -3.549 4.361)" class="st5" cx="355.8" cy="293.17" rx="9.16" ry="9.16"/>
			<circle class="st5" cx="254.79" cy="237.33" r="9.16"/>
			<circle class="st5" cx="509.07" cy="237.33" r="9.16"/>
			<circle class="st5" cx="525.23" cy="81.67" r="9.16"/>
			<path class="st5" d="M581.99,257.32c-5.42,2.07-7.1,3.74-9.16,9.16c-2.07-5.42-3.74-7.1-9.16-9.16c5.42-2.07,7.1-3.74,9.16-9.16
				C574.89,253.58,576.57,255.25,581.99,257.32z"/>
			<path class="st5" d="M398.58,411c-5.42,2.07-7.1,3.74-9.16,9.16c-2.07-5.42-3.74-7.1-9.16-9.16c5.42-2.07,7.1-3.74,9.16-9.16
				C391.49,407.26,393.16,408.93,398.58,411z"/>
			<path class="st5" d="M554.29,106.07c-5.42,2.07-7.1,3.74-9.16,9.16c-2.07-5.42-3.74-7.1-9.16-9.16c5.42-2.07,7.1-3.74,9.16-9.16
				C547.2,102.33,548.87,104,554.29,106.07z"/>
			<path class="st5" d="M438.35,389.48c-10.55,4.02-13.81,7.28-17.83,17.83c-4.02-10.55-7.28-13.81-17.83-17.83
				c10.55-4.02,13.81-7.28,17.83-17.83C424.54,382.2,427.8,385.46,438.35,389.48z"/>
			<path class="st5" d="M208.46,384.01c-7.79,2.97-10.19,5.38-13.16,13.16c-2.97-7.79-5.38-10.19-13.16-13.16
				c7.79-2.97,10.19-5.38,13.16-13.16C198.26,378.63,200.67,381.04,208.46,384.01z"/>
			
				<ellipse transform="matrix(0.9999 -0.0135 0.0135 0.9999 -5.4819 2.9173)" class="st5" cx="213.12" cy="407.09" rx="9.25" ry="9.25"/>
			
				<ellipse transform="matrix(0.0128 -0.9999 0.9999 0.0128 -9.0551 411.495)" class="st5" cx="203.88" cy="210.33" rx="9.25" ry="9.25"/>
			<path class="st5" d="M578.37,420.16c-5.47,2.09-7.16,3.78-9.25,9.25c-2.09-5.47-3.78-7.16-9.25-9.25
				c5.47-2.09,7.16-3.78,9.25-9.25C571.21,416.39,572.9,418.08,578.37,420.16z"/>
			<path class="st5" d="M208.46,75.94c-5.47,2.09-7.16,3.78-9.25,9.25c-2.09-5.47-3.78-7.16-9.25-9.25
				c5.47-2.09,7.16-3.78,9.25-9.25C201.29,72.16,202.98,73.85,208.46,75.94z"/>
		</g>
		<path class="st5" d="M652.74,117.53c-5.42,2.07-7.1,3.74-9.16,9.16c-2.07-5.42-3.74-7.1-9.16-9.16c5.42-2.07,7.1-3.74,9.16-9.16
			C645.64,113.79,647.32,115.46,652.74,117.53z"/>
		<path class="st5" d="M657.21,365.73c-5.42,2.07-7.1,3.74-9.16,9.16c-2.07-5.42-3.74-7.1-9.16-9.16c5.42-2.07,7.1-3.74,9.16-9.16
			C650.12,361.98,651.79,363.66,657.21,365.73z"/>
		<path class="st5" d="M107.7,389.48c-5.42,2.07-7.1,3.74-9.16,9.16c-2.07-5.42-3.74-7.1-9.16-9.16c5.42-2.07,7.1-3.74,9.16-9.16
			C100.6,385.74,102.28,387.41,107.7,389.48z"/>
		<path class="st5" d="M130.7,151.84c-5.42,2.07-7.1,3.74-9.16,9.16c-2.07-5.42-3.74-7.1-9.16-9.16c5.42-2.07,7.1-3.74,9.16-9.16
			C123.6,148.1,125.28,149.77,130.7,151.84z"/>
		<path class="st5" d="M163.14,81.67c-8.96,3.42-11.73,6.19-15.15,15.15c-3.42-8.96-6.19-11.73-15.15-15.15
			c8.96-3.42,11.73-6.19,15.15-15.15C151.41,75.48,154.18,78.25,163.14,81.67z"/>
	</g>
	<g>
		<path class="st6" d="M524.38,47.17c0,13.99-11.34,25.34-25.34,25.34c-13.99,0-25.34-11.34-25.34-25.34
			c0-13.99,11.34-25.34,25.34-25.34C513.03,21.83,524.38,33.17,524.38,47.17z"/>
		<path class="st7" d="M524.38,47.16c0,13.99-11.34,25.34-25.33,25.34c-8.59,0-16.18-4.27-20.76-10.81
			c4.12,2.88,9.13,4.58,14.53,4.58c13.99,0,25.34-11.34,25.34-25.33c0-5.4-1.69-10.41-4.58-14.52
			C520.11,30.99,524.38,38.58,524.38,47.16z"/>
		<path class="st5" d="M511.54,35.14c0,5.71-5.88,10.34-13.12,10.34c-7.25,0-13.12-4.63-13.12-10.34c0-5.71,5.88-10.34,13.12-10.34
			C505.66,24.8,511.54,29.43,511.54,35.14z"/>
		<text transform="matrix(0 1 -1 0 494.355 28.9922)" class="st8 st9">5</text>
	</g>
	<g>
		<path class="st6" d="M216.47,278.95c0,18.76-15.21,33.97-33.97,33.97s-33.97-15.21-33.97-33.97c0-18.76,15.21-33.97,33.97-33.97
			S216.47,260.19,216.47,278.95z"/>
		<path class="st7" d="M216.47,278.94c0,18.76-15.2,33.97-33.96,33.97c-11.52,0-21.69-5.72-27.83-14.49
			c5.52,3.86,12.24,6.14,19.48,6.14c18.76,0,33.97-15.2,33.97-33.96c0-7.24-2.27-13.96-6.14-19.47
			C210.74,257.26,216.47,267.44,216.47,278.94z"/>
		<path class="st5" d="M199.25,262.83c0,7.66-7.88,13.87-17.59,13.87c-9.71,0-17.59-6.21-17.59-13.87c0-7.66,7.88-13.87,17.59-13.87
			C191.38,248.96,199.25,255.17,199.25,262.83z"/>
		<text transform="matrix(0 1 -1 0 174.3107 254.497)" class="st8 st10">0</text>
	</g>
	<g>
		<path class="st11" d="M545.13,376.5c0,13.99-11.34,25.34-25.34,25.34c-13.99,0-25.34-11.34-25.34-25.34
			c0-13.99,11.34-25.34,25.34-25.34C533.79,351.16,545.13,362.51,545.13,376.5z"/>
		<path class="st12" d="M545.13,376.5c0,13.99-11.34,25.34-25.33,25.34c-8.59,0-16.18-4.27-20.76-10.81
			c4.12,2.88,9.13,4.58,14.53,4.58c13.99,0,25.34-11.34,25.34-25.33c0-5.4-1.69-10.41-4.58-14.52
			C540.86,360.33,545.13,367.92,545.13,376.5z"/>
		<path class="st5" d="M531.42,375.77c0,7.25-5.88,13.12-13.12,13.12c-7.25,0-13.12-5.88-13.12-13.12c0-7.25,5.88-13.12,13.12-13.12
			C525.54,362.65,531.42,368.52,531.42,375.77z"/>
		<text transform="matrix(1 0 0 1 513.0854 380.6851)" class="st8 st9">7</text>
	</g>
	<path class="st13" d="M605.13,64.05c0,17.67-14.32,32.01-32,32.01c-10.85,0-20.44-5.39-26.22-13.65c5.2,3.64,11.53,5.79,18.35,5.79
		c17.67,0,32.01-14.32,32.01-31.99c0-6.82-2.13-13.15-5.79-18.34C599.74,43.62,605.13,53.21,605.13,64.05z"/>
	<g>
		<path class="st4" d="M605.13,64.05c0,17.67-14.33,32-32,32c-17.67,0-32-14.33-32-32c0-17.67,14.33-32,32-32
			C590.8,32.05,605.13,46.38,605.13,64.05z"/>
		<path class="st5" d="M587.81,63.13c0,9.15-7.42,16.57-16.58,16.57c-9.15,0-16.57-7.42-16.57-16.57c0-9.15,7.42-16.57,16.57-16.57
			C580.39,46.55,587.81,53.97,587.81,63.13z"/>
		<text transform="matrix(1 0 0 1 564.6533 66.9512)" class="st8 st14">9</text>
	</g>
	<g>
		<path class="st15" d="M298.47,354c0,13.99-11.34,25.34-25.34,25.34c-13.99,0-25.34-11.34-25.34-25.34
			c0-13.99,11.34-25.34,25.34-25.34C287.12,328.67,298.47,340.01,298.47,354z"/>
		<path class="st16" d="M298.47,354c0,13.99-11.34,25.34-25.33,25.34c-8.59,0-16.18-4.27-20.76-10.81
			c4.12,2.88,9.13,4.58,14.53,4.58c13.99,0,25.34-11.34,25.34-25.33c0-5.4-1.69-10.41-4.58-14.52
			C294.2,337.83,298.47,345.42,298.47,354z"/>
		<path class="st5" d="M276.96,352.6c0,7.25-5.5,13.12-12.29,13.12c-6.79,0-12.29-5.88-12.29-13.12c0-7.25,5.5-13.12,12.29-13.12
			C271.46,339.48,276.96,345.36,276.96,352.6z"/>
		<text transform="matrix(1 0 0 1 258.0854 356.2993)" class="st8 st9">3</text>
	</g>
	<g>
		<path class="st17" d="M306.49,434.11c0,19.05-15.45,34.5-34.5,34.5c-19.05,0-34.5-15.45-34.5-34.5c0-19.05,15.45-34.5,34.5-34.5
			C291.04,399.61,306.49,415.06,306.49,434.11z"/>
		<path class="st18" d="M306.49,434.11c0,19.05-15.44,34.5-34.49,34.5c-11.7,0-22.03-5.81-28.27-14.72
			c5.61,3.92,12.43,6.24,19.78,6.24c19.05,0,34.51-15.44,34.51-34.49c0-7.35-2.3-14.18-6.24-19.77
			C300.68,412.09,306.49,422.42,306.49,434.11z"/>
		<path class="st5" d="M275.7,438.46c-7.42,6.5-18.38,6.14-24.47-0.82c-6.09-6.95-5.01-17.86,2.41-24.36
			c7.42-6.5,18.38-6.14,24.47,0.82C284.2,421.05,283.12,431.96,275.7,438.46z"/>
		<text transform="matrix(0.7023 0.7118 -0.7118 0.7023 254.9215 423.0417)" class="st8 st19">4</text>
	</g>
	<g>
		<path class="st20" d="M267.18,115.24c0,13.99-11.34,25.34-25.34,25.34c-13.99,0-25.34-11.34-25.34-25.34
			c0-13.99,11.34-25.34,25.34-25.34C255.84,89.9,267.18,101.24,267.18,115.24z"/>
		<path class="st5" d="M248.67,130.16c-5.5-1.56-8.35-8.47-6.38-15.44c1.98-6.97,8.03-11.36,13.53-9.8
			c5.5,1.56,8.35,8.47,6.37,15.44C260.23,127.32,254.17,131.71,248.67,130.16z"/>
		<path class="st21" d="M267.18,115.23c0,13.99-11.34,25.34-25.33,25.34c-8.59,0-16.18-4.27-20.76-10.81
			c4.12,2.88,9.13,4.58,14.53,4.58c13.99,0,25.34-11.34,25.34-25.33c0-5.4-1.69-10.41-4.58-14.52
			C262.91,99.06,267.18,106.65,267.18,115.23z"/>
		<text transform="matrix(0.9075 0.42 -0.42 0.9075 245.9677 121.7137)" class="st8 st9">6</text>
	</g>
	<g>
		<path class="st22" d="M602.57,193.88c0,17.31-14.03,31.34-31.34,31.34c-17.31,0-31.34-14.03-31.34-31.34
			c0-17.31,14.03-31.34,31.34-31.34C588.54,162.55,602.57,176.58,602.57,193.88z"/>
		<path class="st5" d="M579.68,212.34c-6.8-1.93-10.33-10.48-7.88-19.1c2.44-8.62,9.94-14.05,16.73-12.13
			c6.8,1.93,10.33,10.48,7.89,19.1C593.97,208.83,586.48,214.26,579.68,212.34z"/>
		<path class="st23" d="M602.57,193.88c0,17.3-14.03,31.34-31.33,31.34c-10.62,0-20.01-5.28-25.68-13.37
			c5.09,3.56,11.29,5.67,17.97,5.67c17.3,0,31.34-14.03,31.34-31.33c0-6.68-2.09-12.88-5.67-17.96
			C597.29,173.88,602.57,183.27,602.57,193.88z"/>
		<text transform="matrix(0.9075 0.42 -0.42 0.9075 577.717 198.6179)" class="st8 st24">4</text>
	</g>
</g>
<g id="BACKGROUND_1">
</g>
<g id="DESIGNED_BY_FREEPIK">
	<rect class="st25" width="750" height="500"/>
</g>
</svg>
